# xmcd
#
# Track frame offsets:
#	150
#	18365
#	58865
#
# Disc length: 1386 seconds
#
# Revision: 0
# Processed by: cddbd v1.5PL3 Copyright (c) Steve Scherf et al.
# Submitted via: audiograbber 1.83.01
#
DISCID=1f056803
DTITLE=Earthling - Echo On My Mind Part II [CD2)
DYEAR=1995
DGENRE=Acid Jazz
TTITLE0=Echo On My Mind Part II (Radio Edit)
TTITLE1=Nothing
TTITLE2=Nothingness
EXTD=
EXTT0=
EXTT1=
EXTT2=
PLAYORDER=
